<svg version="1.1" xmlns="http://www.w3.org/2000/svg" xmlns:xlink="http://www.w3.org/1999/xlink" width="321" height="266"><defs><clipPath id="lnUHByAcryTt"><path fill="none" stroke="none" d=" M 0 0 L 321 0 L 321 266 L 0 266 L 0 0 Z"/></clipPath></defs><g transform="scale(1,1)" clip-path="url(#lnUHByAcryTt)"><g><rect fill="rgb(255,255,255)" stroke="none" x="0" y="0" width="322" height="267" fill-opacity="1"/><path fill="none" stroke="rgb(192,192,192)" paint-order="fill stroke markers" d=" M 103.5 0.5 L 103.5 266.5 M 171.5 0.5 L 171.5 266.5 M 240.5 0.5 L 240.5 266.5 M 308.5 0.5 L 308.5 266.5" stroke-opacity="1" stroke-linecap="round" stroke-linejoin="round" stroke-miterlimit="10"/><path fill="none" stroke="rgb(192,192,192)" paint-order="fill stroke markers" d=" M 7.5 0.5 L 7.5 266.5 M 21.5 0.5 L 21.5 266.5 M 48.5 0.5 L 48.5 266.5 M 62.5 0.5 L 62.5 266.5 M 75.5 0.5 L 75.5 266.5 M 89.5 0.5 L 89.5 266.5 M 116.5 0.5 L 116.5 266.5 M 130.5 0.5 L 130.5 266.5 M 144.5 0.5 L 144.5 266.5 M 158.5 0.5 L 158.5 266.5 M 185.5 0.5 L 185.5 266.5 M 199.5 0.5 L 199.5 266.5 M 212.5 0.5 L 212.5 266.5 M 226.5 0.5 L 226.5 266.5 M 253.5 0.5 L 253.5 266.5 M 267.5 0.5 L 267.5 266.5 M 281.5 0.5 L 281.5 266.5 M 294.5 0.5 L 294.5 266.5" stroke-opacity="0.23529411764705882" stroke-linecap="round" stroke-linejoin="round" stroke-miterlimit="10"/><path fill="none" stroke="rgb(192,192,192)" paint-order="fill stroke markers" d=" M 0.5 31.5 L 321.5 31.5 M 0.5 31.5 L 321.5 31.5 M 0.5 100.5 L 321.5 100.5 M 0.5 168.5 L 321.5 168.5" stroke-opacity="1" stroke-linecap="round" stroke-linejoin="round" stroke-miterlimit="10"/><path fill="none" stroke="rgb(192,192,192)" paint-order="fill stroke markers" d=" M 0.5 4.5 L 321.5 4.5 M 0.5 4.5 L 321.5 4.5 M 0.5 18.5 L 321.5 18.5 M 0.5 45.5 L 321.5 45.5 M 0.5 59.5 L 321.5 59.5 M 0.5 72.5 L 321.5 72.5 M 0.5 86.5 L 321.5 86.5 M 0.5 113.5 L 321.5 113.5 M 0.5 127.5 L 321.5 127.5 M 0.5 141.5 L 321.5 141.5 M 0.5 154.5 L 321.5 154.5 M 0.5 182.5 L 321.5 182.5 M 0.5 195.5 L 321.5 195.5 M 0.5 209.5 L 321.5 209.5 M 0.5 223.5 L 321.5 223.5 M 0.5 250.5 L 321.5 250.5 M 0.5 264.5 L 321.5 264.5" stroke-opacity="0.23529411764705882" stroke-linecap="round" stroke-linejoin="round" stroke-miterlimit="10"/><path fill="none" stroke="rgb(37,37,37)" paint-order="fill stroke markers" d=" M 34.5 2.5 L 34.5 266.5" stroke-opacity="1" stroke-miterlimit="10"/><path fill="none" stroke="rgb(37,37,37)" paint-order="fill stroke markers" d=" M 34.5 1.5 L 30.5 5.5" stroke-opacity="1" stroke-miterlimit="10"/><path fill="none" stroke="rgb(37,37,37)" paint-order="fill stroke markers" d=" M 34.5 1.5 L 38.5 5.5" stroke-opacity="1" stroke-miterlimit="10"/><path fill="none" stroke="rgb(37,37,37)" paint-order="fill stroke markers" d=" M 0.5 236.5 L 319.5 236.5" stroke-opacity="1" stroke-miterlimit="10"/><path fill="none" stroke="rgb(37,37,37)" paint-order="fill stroke markers" d=" M 320.5 236.5 L 316.5 232.5" stroke-opacity="1" stroke-miterlimit="10"/><path fill="none" stroke="rgb(37,37,37)" paint-order="fill stroke markers" d=" M 320.5 236.5 L 316.5 240.5" stroke-opacity="1" stroke-miterlimit="10"/><text fill="rgb(37,37,37)" stroke="none" font-family="geogebra-sans-serif, sans-serif" font-size="12px" font-style="normal" font-weight="normal" text-decoration="normal" x="101" y="252" text-anchor="start" dominant-baseline="alphabetic" fill-opacity="1">2</text><text fill="none" stroke="rgb(255,255,255)" font-family="geogebra-sans-serif, sans-serif" font-size="12px" font-style="normal" font-weight="normal" text-decoration="normal" x="101" y="252" text-anchor="start" dominant-baseline="alphabetic" stroke-opacity="1" stroke-linejoin="bevel" stroke-miterlimit="10" stroke-width="3">2</text><text fill="rgb(37,37,37)" stroke="none" font-family="geogebra-sans-serif, sans-serif" font-size="12px" font-style="normal" font-weight="normal" text-decoration="normal" x="101" y="252" text-anchor="start" dominant-baseline="alphabetic" fill-opacity="1">2</text><text fill="rgb(37,37,37)" stroke="none" font-family="geogebra-sans-serif, sans-serif" font-size="12px" font-style="normal" font-weight="normal" text-decoration="normal" x="169" y="252" text-anchor="start" dominant-baseline="alphabetic" fill-opacity="1">4</text><text fill="none" stroke="rgb(255,255,255)" font-family="geogebra-sans-serif, sans-serif" font-size="12px" font-style="normal" font-weight="normal" text-decoration="normal" x="169" y="252" text-anchor="start" dominant-baseline="alphabetic" stroke-opacity="1" stroke-linejoin="bevel" stroke-miterlimit="10" stroke-width="3">4</text><text fill="rgb(37,37,37)" stroke="none" font-family="geogebra-sans-serif, sans-serif" font-size="12px" font-style="normal" font-weight="normal" text-decoration="normal" x="169" y="252" text-anchor="start" dominant-baseline="alphabetic" fill-opacity="1">4</text><text fill="rgb(37,37,37)" stroke="none" font-family="geogebra-sans-serif, sans-serif" font-size="12px" font-style="normal" font-weight="normal" text-decoration="normal" x="238" y="252" text-anchor="start" dominant-baseline="alphabetic" fill-opacity="1">6</text><text fill="none" stroke="rgb(255,255,255)" font-family="geogebra-sans-serif, sans-serif" font-size="12px" font-style="normal" font-weight="normal" text-decoration="normal" x="238" y="252" text-anchor="start" dominant-baseline="alphabetic" stroke-opacity="1" stroke-linejoin="bevel" stroke-miterlimit="10" stroke-width="3">6</text><text fill="rgb(37,37,37)" stroke="none" font-family="geogebra-sans-serif, sans-serif" font-size="12px" font-style="normal" font-weight="normal" text-decoration="normal" x="238" y="252" text-anchor="start" dominant-baseline="alphabetic" fill-opacity="1">6</text><text fill="rgb(37,37,37)" stroke="none" font-family="geogebra-sans-serif, sans-serif" font-size="12px" font-style="normal" font-weight="normal" text-decoration="normal" x="306" y="252" text-anchor="start" dominant-baseline="alphabetic" fill-opacity="1">8</text><text fill="none" stroke="rgb(255,255,255)" font-family="geogebra-sans-serif, sans-serif" font-size="12px" font-style="normal" font-weight="normal" text-decoration="normal" x="306" y="252" text-anchor="start" dominant-baseline="alphabetic" stroke-opacity="1" stroke-linejoin="bevel" stroke-miterlimit="10" stroke-width="3">8</text><text fill="rgb(37,37,37)" stroke="none" font-family="geogebra-sans-serif, sans-serif" font-size="12px" font-style="normal" font-weight="normal" text-decoration="normal" x="306" y="252" text-anchor="start" dominant-baseline="alphabetic" fill-opacity="1">8</text><text fill="rgb(37,37,37)" stroke="none" font-family="geogebra-sans-serif, sans-serif" font-size="12px" font-style="normal" font-weight="normal" text-decoration="normal" x="20" y="173" text-anchor="start" dominant-baseline="alphabetic" fill-opacity="1">2</text><text fill="none" stroke="rgb(255,255,255)" font-family="geogebra-sans-serif, sans-serif" font-size="12px" font-style="normal" font-weight="normal" text-decoration="normal" x="20" y="173" text-anchor="start" dominant-baseline="alphabetic" stroke-opacity="1" stroke-linejoin="bevel" stroke-miterlimit="10" stroke-width="3">2</text><text fill="rgb(37,37,37)" stroke="none" font-family="geogebra-sans-serif, sans-serif" font-size="12px" font-style="normal" font-weight="normal" text-decoration="normal" x="20" y="173" text-anchor="start" dominant-baseline="alphabetic" fill-opacity="1">2</text><text fill="rgb(37,37,37)" stroke="none" font-family="geogebra-sans-serif, sans-serif" font-size="12px" font-style="normal" font-weight="normal" text-decoration="normal" x="20" y="105" text-anchor="start" dominant-baseline="alphabetic" fill-opacity="1">4</text><text fill="none" stroke="rgb(255,255,255)" font-family="geogebra-sans-serif, sans-serif" font-size="12px" font-style="normal" font-weight="normal" text-decoration="normal" x="20" y="105" text-anchor="start" dominant-baseline="alphabetic" stroke-opacity="1" stroke-linejoin="bevel" stroke-miterlimit="10" stroke-width="3">4</text><text fill="rgb(37,37,37)" stroke="none" font-family="geogebra-sans-serif, sans-serif" font-size="12px" font-style="normal" font-weight="normal" text-decoration="normal" x="20" y="105" text-anchor="start" dominant-baseline="alphabetic" fill-opacity="1">4</text><text fill="rgb(37,37,37)" stroke="none" font-family="geogebra-sans-serif, sans-serif" font-size="12px" font-style="normal" font-weight="normal" text-decoration="normal" x="20" y="36" text-anchor="start" dominant-baseline="alphabetic" fill-opacity="1">6</text><text fill="none" stroke="rgb(255,255,255)" font-family="geogebra-sans-serif, sans-serif" font-size="12px" font-style="normal" font-weight="normal" text-decoration="normal" x="20" y="36" text-anchor="start" dominant-baseline="alphabetic" stroke-opacity="1" stroke-linejoin="bevel" stroke-miterlimit="10" stroke-width="3">6</text><text fill="rgb(37,37,37)" stroke="none" font-family="geogebra-sans-serif, sans-serif" font-size="12px" font-style="normal" font-weight="normal" text-decoration="normal" x="20" y="36" text-anchor="start" dominant-baseline="alphabetic" fill-opacity="1">6</text><text fill="rgb(37,37,37)" stroke="none" font-family="geogebra-sans-serif, sans-serif" font-size="12px" font-style="normal" font-weight="normal" text-decoration="normal" x="20" y="252" text-anchor="start" dominant-baseline="alphabetic" fill-opacity="1">0</text><text fill="none" stroke="rgb(255,255,255)" font-family="geogebra-sans-serif, sans-serif" font-size="12px" font-style="normal" font-weight="normal" text-decoration="normal" x="20" y="252" text-anchor="start" dominant-baseline="alphabetic" stroke-opacity="1" stroke-linejoin="bevel" stroke-miterlimit="10" stroke-width="3">0</text><text fill="rgb(37,37,37)" stroke="none" font-family="geogebra-sans-serif, sans-serif" font-size="12px" font-style="normal" font-weight="normal" text-decoration="normal" x="20" y="252" text-anchor="start" dominant-baseline="alphabetic" fill-opacity="1">0</text><path fill="none" stroke="rgb(97,97,97)" paint-order="fill stroke markers" d=" M 69.11616051732057 202.71005935235038 L 171.71365375772587 236.9092237658189" stroke-opacity="0.8" stroke-linecap="round" stroke-linejoin="round" stroke-miterlimit="10" stroke-width="2.5"/><path fill="none" stroke="rgb(97,97,97)" paint-order="fill stroke markers" d=" M 171.71365375772587 236.9092237658189 L 240.1119825846627 202.71005935235038" stroke-opacity="0.8" stroke-linecap="round" stroke-linejoin="round" stroke-miterlimit="10" stroke-width="2.5"/><path fill="none" stroke="rgb(97,97,97)" paint-order="fill stroke markers" d=" M 240.1119825846627 202.71005935235038 L 274.31114699813116 100.11256611194483" stroke-opacity="0.8" stroke-linecap="round" stroke-linejoin="round" stroke-miterlimit="10" stroke-width="2.5"/><path fill="none" stroke="rgb(97,97,97)" paint-order="fill stroke markers" d=" M 274.31114699813116 100.11256611194483 L 240.1119825846627 31.714237285007783" stroke-opacity="0.8" stroke-linecap="round" stroke-linejoin="round" stroke-miterlimit="10" stroke-width="2.5"/><path fill="none" stroke="rgb(97,97,97)" paint-order="fill stroke markers" d=" M 240.1119825846627 31.714237285007783 L 103.31532493078899 31.714237285007783" stroke-opacity="0.8" stroke-linecap="round" stroke-linejoin="round" stroke-miterlimit="10" stroke-width="2.5"/><path fill="none" stroke="rgb(97,97,97)" paint-order="fill stroke markers" d=" M 103.31532493078899 31.714237285007783 L 69.11616051732057 65.91340169847632" stroke-opacity="0.8" stroke-linecap="round" stroke-linejoin="round" stroke-miterlimit="10" stroke-width="2.5"/><path fill="none" stroke="rgb(97,97,97)" paint-order="fill stroke markers" d=" M 69.11616051732057 65.91340169847632 L 69.11616051732057 202.71005935235038" stroke-opacity="0.8" stroke-linecap="round" stroke-linejoin="round" stroke-miterlimit="10" stroke-width="2.5"/><path fill="rgb(21,101,192)" stroke="none" paint-order="stroke fill markers" d=" M 176.71365375772587 236.9092237658189 C 176.71365375772587 239.67064751497287 174.47507750687984 241.9092237658189 171.71365375772587 241.9092237658189 C 168.9522300085719 241.9092237658189 166.71365375772587 239.67064751497287 166.71365375772587 236.9092237658189 C 166.71365375772587 234.14780001666492 168.9522300085719 231.9092237658189 171.71365375772587 231.9092237658189 C 174.47507750687984 231.9092237658189 176.71365375772587 234.14780001666492 176.71365375772587 236.9092237658189 Z" fill-opacity="1"/><path fill="none" stroke="rgb(0,0,0)" paint-order="fill stroke markers" d=" M 176.71365375772587 236.9092237658189 C 176.71365375772587 239.67064751497287 174.47507750687984 241.9092237658189 171.71365375772587 241.9092237658189 C 168.9522300085719 241.9092237658189 166.71365375772587 239.67064751497287 166.71365375772587 236.9092237658189 C 166.71365375772587 234.14780001666492 168.9522300085719 231.9092237658189 171.71365375772587 231.9092237658189 C 174.47507750687984 231.9092237658189 176.71365375772587 234.14780001666492 176.71365375772587 236.9092237658189 Z" stroke-opacity="1" stroke-linecap="round" stroke-linejoin="round" stroke-miterlimit="10"/><text fill="rgb(21,101,192)" stroke="none" font-family="geogebra-sans-serif, sans-serif" font-size="16px" font-style="normal" font-weight="normal" text-decoration="normal" x="176" y="227" text-anchor="start" dominant-baseline="alphabetic" fill-opacity="1">A</text><text fill="none" stroke="rgb(255,255,255)" font-family="geogebra-sans-serif, sans-serif" font-size="16px" font-style="normal" font-weight="normal" text-decoration="normal" x="176" y="227" text-anchor="start" dominant-baseline="alphabetic" stroke-opacity="1" stroke-linejoin="bevel" stroke-miterlimit="10" stroke-width="3">A</text><text fill="rgb(21,101,192)" stroke="none" font-family="geogebra-sans-serif, sans-serif" font-size="16px" font-style="normal" font-weight="normal" text-decoration="normal" x="176" y="227" text-anchor="start" dominant-baseline="alphabetic" fill-opacity="1">A</text><path fill="rgb(21,101,192)" stroke="none" paint-order="stroke fill markers" d=" M 108.31532493078899 134.31173052541334 C 108.31532493078899 137.07315427456732 106.07674867994295 139.31173052541334 103.31532493078899 139.31173052541334 C 100.55390118163503 139.31173052541334 98.31532493078899 137.07315427456732 98.31532493078899 134.31173052541334 C 98.31532493078899 131.55030677625936 100.55390118163503 129.31173052541334 103.31532493078899 129.31173052541334 C 106.07674867994295 129.31173052541334 108.31532493078899 131.55030677625936 108.31532493078899 134.31173052541334 Z" fill-opacity="1"/><path fill="none" stroke="rgb(0,0,0)" paint-order="fill stroke markers" d=" M 108.31532493078899 134.31173052541334 C 108.31532493078899 137.07315427456732 106.07674867994295 139.31173052541334 103.31532493078899 139.31173052541334 C 100.55390118163503 139.31173052541334 98.31532493078899 137.07315427456732 98.31532493078899 134.31173052541334 C 98.31532493078899 131.55030677625936 100.55390118163503 129.31173052541334 103.31532493078899 129.31173052541334 C 106.07674867994295 129.31173052541334 108.31532493078899 131.55030677625936 108.31532493078899 134.31173052541334 Z" stroke-opacity="1" stroke-linecap="round" stroke-linejoin="round" stroke-miterlimit="10"/><text fill="rgb(21,101,192)" stroke="none" font-family="geogebra-sans-serif, sans-serif" font-size="16px" font-style="normal" font-weight="normal" text-decoration="normal" x="107" y="124" text-anchor="start" dominant-baseline="alphabetic" fill-opacity="1">B</text><text fill="none" stroke="rgb(255,255,255)" font-family="geogebra-sans-serif, sans-serif" font-size="16px" font-style="normal" font-weight="normal" text-decoration="normal" x="107" y="124" text-anchor="start" dominant-baseline="alphabetic" stroke-opacity="1" stroke-linejoin="bevel" stroke-miterlimit="10" stroke-width="3">B</text><text fill="rgb(21,101,192)" stroke="none" font-family="geogebra-sans-serif, sans-serif" font-size="16px" font-style="normal" font-weight="normal" text-decoration="normal" x="107" y="124" text-anchor="start" dominant-baseline="alphabetic" fill-opacity="1">B</text><path fill="rgb(21,101,192)" stroke="none" paint-order="stroke fill markers" d=" M 210.91281817119426 168.51089493888185 C 210.91281817119426 171.27231868803582 208.67424192034824 173.51089493888185 205.91281817119426 173.51089493888185 C 203.15139442204028 173.51089493888185 200.91281817119426 171.27231868803582 200.91281817119426 168.51089493888185 C 200.91281817119426 165.74947118972787 203.15139442204028 163.51089493888185 205.91281817119426 163.51089493888185 C 208.67424192034824 163.51089493888185 210.91281817119426 165.74947118972787 210.91281817119426 168.51089493888185 Z" fill-opacity="1"/><path fill="none" stroke="rgb(0,0,0)" paint-order="fill stroke markers" d=" M 210.91281817119426 168.51089493888185 C 210.91281817119426 171.27231868803582 208.67424192034824 173.51089493888185 205.91281817119426 173.51089493888185 C 203.15139442204028 173.51089493888185 200.91281817119426 171.27231868803582 200.91281817119426 168.51089493888185 C 200.91281817119426 165.74947118972787 203.15139442204028 163.51089493888185 205.91281817119426 163.51089493888185 C 208.67424192034824 163.51089493888185 210.91281817119426 165.74947118972787 210.91281817119426 168.51089493888185 Z" stroke-opacity="1" stroke-linecap="round" stroke-linejoin="round" stroke-miterlimit="10"/><text fill="rgb(21,101,192)" stroke="none" font-family="geogebra-sans-serif, sans-serif" font-size="16px" font-style="normal" font-weight="normal" text-decoration="normal" x="210" y="159" text-anchor="start" dominant-baseline="alphabetic" fill-opacity="1">C</text><text fill="none" stroke="rgb(255,255,255)" font-family="geogebra-sans-serif, sans-serif" font-size="16px" font-style="normal" font-weight="normal" text-decoration="normal" x="210" y="159" text-anchor="start" dominant-baseline="alphabetic" stroke-opacity="1" stroke-linejoin="bevel" stroke-miterlimit="10" stroke-width="3">C</text><text fill="rgb(21,101,192)" stroke="none" font-family="geogebra-sans-serif, sans-serif" font-size="16px" font-style="normal" font-weight="normal" text-decoration="normal" x="210" y="159" text-anchor="start" dominant-baseline="alphabetic" fill-opacity="1">C</text><path fill="rgb(21,101,192)" stroke="none" paint-order="stroke fill markers" d=" M 245.1119825846627 202.71005935235038 C 245.1119825846627 205.47148310150436 242.8734063338167 207.71005935235038 240.1119825846627 207.71005935235038 C 237.35055883550874 207.71005935235038 235.1119825846627 205.47148310150436 235.1119825846627 202.71005935235038 C 235.1119825846627 199.9486356031964 237.35055883550874 197.71005935235038 240.1119825846627 197.71005935235038 C 242.8734063338167 197.71005935235038 245.1119825846627 199.9486356031964 245.1119825846627 202.71005935235038 Z" fill-opacity="1"/><path fill="none" stroke="rgb(0,0,0)" paint-order="fill stroke markers" d=" M 245.1119825846627 202.71005935235038 C 245.1119825846627 205.47148310150436 242.8734063338167 207.71005935235038 240.1119825846627 207.71005935235038 C 237.35055883550874 207.71005935235038 235.1119825846627 205.47148310150436 235.1119825846627 202.71005935235038 C 235.1119825846627 199.9486356031964 237.35055883550874 197.71005935235038 240.1119825846627 197.71005935235038 C 242.8734063338167 197.71005935235038 245.1119825846627 199.9486356031964 245.1119825846627 202.71005935235038 Z" stroke-opacity="1" stroke-linecap="round" stroke-linejoin="round" stroke-miterlimit="10"/><text fill="rgb(21,101,192)" stroke="none" font-family="geogebra-sans-serif, sans-serif" font-size="16px" font-style="normal" font-weight="normal" text-decoration="normal" x="244" y="193" text-anchor="start" dominant-baseline="alphabetic" fill-opacity="1">D</text><text fill="none" stroke="rgb(255,255,255)" font-family="geogebra-sans-serif, sans-serif" font-size="16px" font-style="normal" font-weight="normal" text-decoration="normal" x="244" y="193" text-anchor="start" dominant-baseline="alphabetic" stroke-opacity="1" stroke-linejoin="bevel" stroke-miterlimit="10" stroke-width="3">D</text><text fill="rgb(21,101,192)" stroke="none" font-family="geogebra-sans-serif, sans-serif" font-size="16px" font-style="normal" font-weight="normal" text-decoration="normal" x="244" y="193" text-anchor="start" dominant-baseline="alphabetic" fill-opacity="1">D</text><path fill="rgb(21,101,192)" stroke="none" paint-order="stroke fill markers" d=" M 279.31114699813116 100.11256611194483 C 279.31114699813116 102.87398986109879 277.0725707472851 105.11256611194483 274.31114699813116 105.11256611194483 C 271.5497232489772 105.11256611194483 269.31114699813116 102.87398986109879 269.31114699813116 100.11256611194483 C 269.31114699813116 97.35114236279087 271.5497232489772 95.11256611194483 274.31114699813116 95.11256611194483 C 277.0725707472851 95.11256611194483 279.31114699813116 97.35114236279087 279.31114699813116 100.11256611194483 Z" fill-opacity="1"/><path fill="none" stroke="rgb(0,0,0)" paint-order="fill stroke markers" d=" M 279.31114699813116 100.11256611194483 C 279.31114699813116 102.87398986109879 277.0725707472851 105.11256611194483 274.31114699813116 105.11256611194483 C 271.5497232489772 105.11256611194483 269.31114699813116 102.87398986109879 269.31114699813116 100.11256611194483 C 269.31114699813116 97.35114236279087 271.5497232489772 95.11256611194483 274.31114699813116 95.11256611194483 C 277.0725707472851 95.11256611194483 279.31114699813116 97.35114236279087 279.31114699813116 100.11256611194483 Z" stroke-opacity="1" stroke-linecap="round" stroke-linejoin="round" stroke-miterlimit="10"/><text fill="rgb(21,101,192)" stroke="none" font-family="geogebra-sans-serif, sans-serif" font-size="16px" font-style="normal" font-weight="normal" text-decoration="normal" x="278" y="90" text-anchor="start" dominant-baseline="alphabetic" fill-opacity="1">E</text><text fill="none" stroke="rgb(255,255,255)" font-family="geogebra-sans-serif, sans-serif" font-size="16px" font-style="normal" font-weight="normal" text-decoration="normal" x="278" y="90" text-anchor="start" dominant-baseline="alphabetic" stroke-opacity="1" stroke-linejoin="bevel" stroke-miterlimit="10" stroke-width="3">E</text><text fill="rgb(21,101,192)" stroke="none" font-family="geogebra-sans-serif, sans-serif" font-size="16px" font-style="normal" font-weight="normal" text-decoration="normal" x="278" y="90" text-anchor="start" dominant-baseline="alphabetic" fill-opacity="1">E</text><path fill="rgb(21,101,192)" stroke="none" paint-order="stroke fill markers" d=" M 245.1119825846627 31.714237285007783 C 245.1119825846627 34.475661034161746 242.8734063338167 36.71423728500778 240.1119825846627 36.71423728500778 C 237.35055883550874 36.71423728500778 235.1119825846627 34.475661034161746 235.1119825846627 31.714237285007783 C 235.1119825846627 28.952813535853817 237.35055883550874 26.714237285007783 240.1119825846627 26.714237285007783 C 242.8734063338167 26.714237285007783 245.1119825846627 28.952813535853817 245.1119825846627 31.714237285007783 Z" fill-opacity="1"/><path fill="none" stroke="rgb(0,0,0)" paint-order="fill stroke markers" d=" M 245.1119825846627 31.714237285007783 C 245.1119825846627 34.475661034161746 242.8734063338167 36.71423728500778 240.1119825846627 36.71423728500778 C 237.35055883550874 36.71423728500778 235.1119825846627 34.475661034161746 235.1119825846627 31.714237285007783 C 235.1119825846627 28.952813535853817 237.35055883550874 26.714237285007783 240.1119825846627 26.714237285007783 C 242.8734063338167 26.714237285007783 245.1119825846627 28.952813535853817 245.1119825846627 31.714237285007783 Z" stroke-opacity="1" stroke-linecap="round" stroke-linejoin="round" stroke-miterlimit="10"/><text fill="rgb(21,101,192)" stroke="none" font-family="geogebra-sans-serif, sans-serif" font-size="16px" font-style="normal" font-weight="normal" text-decoration="normal" x="244" y="24" text-anchor="start" dominant-baseline="alphabetic" fill-opacity="1">F</text><text fill="none" stroke="rgb(255,255,255)" font-family="geogebra-sans-serif, sans-serif" font-size="16px" font-style="normal" font-weight="normal" text-decoration="normal" x="244" y="24" text-anchor="start" dominant-baseline="alphabetic" stroke-opacity="1" stroke-linejoin="bevel" stroke-miterlimit="10" stroke-width="3">F</text><text fill="rgb(21,101,192)" stroke="none" font-family="geogebra-sans-serif, sans-serif" font-size="16px" font-style="normal" font-weight="normal" text-decoration="normal" x="244" y="24" text-anchor="start" dominant-baseline="alphabetic" fill-opacity="1">F</text><path fill="rgb(21,101,192)" stroke="none" paint-order="stroke fill markers" d=" M 210.91281817119426 100.11256611194483 C 210.91281817119426 102.87398986109879 208.67424192034824 105.11256611194483 205.91281817119426 105.11256611194483 C 203.15139442204028 105.11256611194483 200.91281817119426 102.87398986109879 200.91281817119426 100.11256611194483 C 200.91281817119426 97.35114236279087 203.15139442204028 95.11256611194483 205.91281817119426 95.11256611194483 C 208.67424192034824 95.11256611194483 210.91281817119426 97.35114236279087 210.91281817119426 100.11256611194483 Z" fill-opacity="1"/><path fill="none" stroke="rgb(0,0,0)" paint-order="fill stroke markers" d=" M 210.91281817119426 100.11256611194483 C 210.91281817119426 102.87398986109879 208.67424192034824 105.11256611194483 205.91281817119426 105.11256611194483 C 203.15139442204028 105.11256611194483 200.91281817119426 102.87398986109879 200.91281817119426 100.11256611194483 C 200.91281817119426 97.35114236279087 203.15139442204028 95.11256611194483 205.91281817119426 95.11256611194483 C 208.67424192034824 95.11256611194483 210.91281817119426 97.35114236279087 210.91281817119426 100.11256611194483 Z" stroke-opacity="1" stroke-linecap="round" stroke-linejoin="round" stroke-miterlimit="10"/><text fill="rgb(21,101,192)" stroke="none" font-family="geogebra-sans-serif, sans-serif" font-size="16px" font-style="normal" font-weight="normal" text-decoration="normal" x="210" y="90" text-anchor="start" dominant-baseline="alphabetic" fill-opacity="1">G</text><text fill="none" stroke="rgb(255,255,255)" font-family="geogebra-sans-serif, sans-serif" font-size="16px" font-style="normal" font-weight="normal" text-decoration="normal" x="210" y="90" text-anchor="start" dominant-baseline="alphabetic" stroke-opacity="1" stroke-linejoin="bevel" stroke-miterlimit="10" stroke-width="3">G</text><text fill="rgb(21,101,192)" stroke="none" font-family="geogebra-sans-serif, sans-serif" font-size="16px" font-style="normal" font-weight="normal" text-decoration="normal" x="210" y="90" text-anchor="start" dominant-baseline="alphabetic" fill-opacity="1">G</text><path fill="rgb(21,101,192)" stroke="none" paint-order="stroke fill markers" d=" M 176.71365375772587 65.91340169847632 C 176.71365375772587 68.67482544763028 174.47507750687984 70.91340169847632 171.71365375772587 70.91340169847632 C 168.9522300085719 70.91340169847632 166.71365375772587 68.67482544763028 166.71365375772587 65.91340169847632 C 166.71365375772587 63.15197794932235 168.9522300085719 60.91340169847632 171.71365375772587 60.91340169847632 C 174.47507750687984 60.91340169847632 176.71365375772587 63.15197794932235 176.71365375772587 65.91340169847632 Z" fill-opacity="1"/><path fill="none" stroke="rgb(0,0,0)" paint-order="fill stroke markers" d=" M 176.71365375772587 65.91340169847632 C 176.71365375772587 68.67482544763028 174.47507750687984 70.91340169847632 171.71365375772587 70.91340169847632 C 168.9522300085719 70.91340169847632 166.71365375772587 68.67482544763028 166.71365375772587 65.91340169847632 C 166.71365375772587 63.15197794932235 168.9522300085719 60.91340169847632 171.71365375772587 60.91340169847632 C 174.47507750687984 60.91340169847632 176.71365375772587 63.15197794932235 176.71365375772587 65.91340169847632 Z" stroke-opacity="1" stroke-linecap="round" stroke-linejoin="round" stroke-miterlimit="10"/><text fill="rgb(21,101,192)" stroke="none" font-family="geogebra-sans-serif, sans-serif" font-size="16px" font-style="normal" font-weight="normal" text-decoration="normal" x="176" y="56" text-anchor="start" dominant-baseline="alphabetic" fill-opacity="1">H</text><text fill="none" stroke="rgb(255,255,255)" font-family="geogebra-sans-serif, sans-serif" font-size="16px" font-style="normal" font-weight="normal" text-decoration="normal" x="176" y="56" text-anchor="start" dominant-baseline="alphabetic" stroke-opacity="1" stroke-linejoin="bevel" stroke-miterlimit="10" stroke-width="3">H</text><text fill="rgb(21,101,192)" stroke="none" font-family="geogebra-sans-serif, sans-serif" font-size="16px" font-style="normal" font-weight="normal" text-decoration="normal" x="176" y="56" text-anchor="start" dominant-baseline="alphabetic" fill-opacity="1">H</text><path fill="rgb(21,101,192)" stroke="none" paint-order="stroke fill markers" d=" M 108.31532493078899 31.714237285007783 C 108.31532493078899 34.475661034161746 106.07674867994295 36.71423728500778 103.31532493078899 36.71423728500778 C 100.55390118163503 36.71423728500778 98.31532493078899 34.475661034161746 98.31532493078899 31.714237285007783 C 98.31532493078899 28.952813535853817 100.55390118163503 26.714237285007783 103.31532493078899 26.714237285007783 C 106.07674867994295 26.714237285007783 108.31532493078899 28.952813535853817 108.31532493078899 31.714237285007783 Z" fill-opacity="1"/><path fill="none" stroke="rgb(0,0,0)" paint-order="fill stroke markers" d=" M 108.31532493078899 31.714237285007783 C 108.31532493078899 34.475661034161746 106.07674867994295 36.71423728500778 103.31532493078899 36.71423728500778 C 100.55390118163503 36.71423728500778 98.31532493078899 34.475661034161746 98.31532493078899 31.714237285007783 C 98.31532493078899 28.952813535853817 100.55390118163503 26.714237285007783 103.31532493078899 26.714237285007783 C 106.07674867994295 26.714237285007783 108.31532493078899 28.952813535853817 108.31532493078899 31.714237285007783 Z" stroke-opacity="1" stroke-linecap="round" stroke-linejoin="round" stroke-miterlimit="10"/><text fill="rgb(21,101,192)" stroke="none" font-family="geogebra-sans-serif, sans-serif" font-size="16px" font-style="normal" font-weight="normal" text-decoration="normal" x="107" y="24" text-anchor="start" dominant-baseline="alphabetic" fill-opacity="1">I</text><text fill="none" stroke="rgb(255,255,255)" font-family="geogebra-sans-serif, sans-serif" font-size="16px" font-style="normal" font-weight="normal" text-decoration="normal" x="107" y="24" text-anchor="start" dominant-baseline="alphabetic" stroke-opacity="1" stroke-linejoin="bevel" stroke-miterlimit="10" stroke-width="3">I</text><text fill="rgb(21,101,192)" stroke="none" font-family="geogebra-sans-serif, sans-serif" font-size="16px" font-style="normal" font-weight="normal" text-decoration="normal" x="107" y="24" text-anchor="start" dominant-baseline="alphabetic" fill-opacity="1">I</text><path fill="rgb(21,101,192)" stroke="none" paint-order="stroke fill markers" d=" M 74.11616051732057 202.71005935235038 C 74.11616051732057 205.47148310150436 71.87758426647453 207.71005935235038 69.11616051732057 207.71005935235038 C 66.3547367681666 207.71005935235038 64.11616051732057 205.47148310150436 64.11616051732057 202.71005935235038 C 64.11616051732057 199.9486356031964 66.3547367681666 197.71005935235038 69.11616051732057 197.71005935235038 C 71.87758426647453 197.71005935235038 74.11616051732057 199.9486356031964 74.11616051732057 202.71005935235038 Z" fill-opacity="1"/><path fill="none" stroke="rgb(0,0,0)" paint-order="fill stroke markers" d=" M 74.11616051732057 202.71005935235038 C 74.11616051732057 205.47148310150436 71.87758426647453 207.71005935235038 69.11616051732057 207.71005935235038 C 66.3547367681666 207.71005935235038 64.11616051732057 205.47148310150436 64.11616051732057 202.71005935235038 C 64.11616051732057 199.9486356031964 66.3547367681666 197.71005935235038 69.11616051732057 197.71005935235038 C 71.87758426647453 197.71005935235038 74.11616051732057 199.9486356031964 74.11616051732057 202.71005935235038 Z" stroke-opacity="1" stroke-linecap="round" stroke-linejoin="round" stroke-miterlimit="10"/><text fill="rgb(21,101,192)" stroke="none" font-family="geogebra-sans-serif, sans-serif" font-size="16px" font-style="normal" font-weight="normal" text-decoration="normal" x="73" y="193" text-anchor="start" dominant-baseline="alphabetic" fill-opacity="1">J</text><text fill="none" stroke="rgb(255,255,255)" font-family="geogebra-sans-serif, sans-serif" font-size="16px" font-style="normal" font-weight="normal" text-decoration="normal" x="73" y="193" text-anchor="start" dominant-baseline="alphabetic" stroke-opacity="1" stroke-linejoin="bevel" stroke-miterlimit="10" stroke-width="3">J</text><text fill="rgb(21,101,192)" stroke="none" font-family="geogebra-sans-serif, sans-serif" font-size="16px" font-style="normal" font-weight="normal" text-decoration="normal" x="73" y="193" text-anchor="start" dominant-baseline="alphabetic" fill-opacity="1">J</text><path fill="rgb(21,101,192)" stroke="none" paint-order="stroke fill markers" d=" M 74.11616051732057 65.91340169847632 C 74.11616051732057 68.67482544763028 71.87758426647453 70.91340169847632 69.11616051732057 70.91340169847632 C 66.3547367681666 70.91340169847632 64.11616051732057 68.67482544763028 64.11616051732057 65.91340169847632 C 64.11616051732057 63.15197794932235 66.3547367681666 60.91340169847632 69.11616051732057 60.91340169847632 C 71.87758426647453 60.91340169847632 74.11616051732057 63.15197794932235 74.11616051732057 65.91340169847632 Z" fill-opacity="1"/><path fill="none" stroke="rgb(0,0,0)" paint-order="fill stroke markers" d=" M 74.11616051732057 65.91340169847632 C 74.11616051732057 68.67482544763028 71.87758426647453 70.91340169847632 69.11616051732057 70.91340169847632 C 66.3547367681666 70.91340169847632 64.11616051732057 68.67482544763028 64.11616051732057 65.91340169847632 C 64.11616051732057 63.15197794932235 66.3547367681666 60.91340169847632 69.11616051732057 60.91340169847632 C 71.87758426647453 60.91340169847632 74.11616051732057 63.15197794932235 74.11616051732057 65.91340169847632 Z" stroke-opacity="1" stroke-linecap="round" stroke-linejoin="round" stroke-miterlimit="10"/><text fill="rgb(21,101,192)" stroke="none" font-family="geogebra-sans-serif, sans-serif" font-size="16px" font-style="normal" font-weight="normal" text-decoration="normal" x="73" y="56" text-anchor="start" dominant-baseline="alphabetic" fill-opacity="1">K</text><text fill="none" stroke="rgb(255,255,255)" font-family="geogebra-sans-serif, sans-serif" font-size="16px" font-style="normal" font-weight="normal" text-decoration="normal" x="73" y="56" text-anchor="start" dominant-baseline="alphabetic" stroke-opacity="1" stroke-linejoin="bevel" stroke-miterlimit="10" stroke-width="3">K</text><text fill="rgb(21,101,192)" stroke="none" font-family="geogebra-sans-serif, sans-serif" font-size="16px" font-style="normal" font-weight="normal" text-decoration="normal" x="73" y="56" text-anchor="start" dominant-baseline="alphabetic" fill-opacity="1">K</text><path fill="rgb(21,101,192)" stroke="none" paint-order="stroke fill markers" d=" M 142.5144893442574 168.51089493888185 C 142.5144893442574 171.27231868803582 140.2759130934114 173.51089493888185 137.5144893442574 173.51089493888185 C 134.75306559510344 173.51089493888185 132.5144893442574 171.27231868803582 132.5144893442574 168.51089493888185 C 132.5144893442574 165.74947118972787 134.75306559510344 163.51089493888185 137.5144893442574 163.51089493888185 C 140.2759130934114 163.51089493888185 142.5144893442574 165.74947118972787 142.5144893442574 168.51089493888185 Z" fill-opacity="1"/><path fill="none" stroke="rgb(0,0,0)" paint-order="fill stroke markers" d=" M 142.5144893442574 168.51089493888185 C 142.5144893442574 171.27231868803582 140.2759130934114 173.51089493888185 137.5144893442574 173.51089493888185 C 134.75306559510344 173.51089493888185 132.5144893442574 171.27231868803582 132.5144893442574 168.51089493888185 C 132.5144893442574 165.74947118972787 134.75306559510344 163.51089493888185 137.5144893442574 163.51089493888185 C 140.2759130934114 163.51089493888185 142.5144893442574 165.74947118972787 142.5144893442574 168.51089493888185 Z" stroke-opacity="1" stroke-linecap="round" stroke-linejoin="round" stroke-miterlimit="10"/><text fill="rgb(21,101,192)" stroke="none" font-family="geogebra-sans-serif, sans-serif" font-size="16px" font-style="normal" font-weight="normal" text-decoration="normal" x="142" y="159" text-anchor="start" dominant-baseline="alphabetic" fill-opacity="1">L</text><text fill="none" stroke="rgb(255,255,255)" font-family="geogebra-sans-serif, sans-serif" font-size="16px" font-style="normal" font-weight="normal" text-decoration="normal" x="142" y="159" text-anchor="start" dominant-baseline="alphabetic" stroke-opacity="1" stroke-linejoin="bevel" stroke-miterlimit="10" stroke-width="3">L</text><text fill="rgb(21,101,192)" stroke="none" font-family="geogebra-sans-serif, sans-serif" font-size="16px" font-style="normal" font-weight="normal" text-decoration="normal" x="142" y="159" text-anchor="start" dominant-baseline="alphabetic" fill-opacity="1">L</text></g></g></svg>