<?xml version="1.0" encoding="UTF-8" standalone="no"?>
<!DOCTYPE svg PUBLIC "-//W3C//DTD SVG 1.1//EN" "http://www.w3.org/Graphics/SVG/1.1/DTD/svg11.dtd">
<!-- Generated by graphviz version 2.40.1 (20161225.0304)
 -->
<!-- Title: G Pages: 1 -->
<svg width="250pt" height="169pt" viewBox="0.00 0.00 250.39 169.27" xmlns="http://www.w3.org/2000/svg" xmlns:xlink="http://www.w3.org/1999/xlink">
<g id="graph0" class="graph" transform="scale(1 1) rotate(0) translate(4 165.271)">
<title>G</title>
<polygon fill="#ffffff" stroke="transparent" points="-4,4 -4,-165.271 246.3876,-165.271 246.3876,4 -4,4"/>
<!-- 0 -->
<g id="node1" class="node">
<title>0</title>
<ellipse fill="none" stroke="#000000" cx="73.4659" cy="-83.0081" rx="27" ry="18"/>
<text text-anchor="middle" x="73.4659" y="-78.8081" font-family="Times,serif" font-size="14.00" fill="#000000">0</text>
</g>
<!-- 1 -->
<g id="node2" class="node">
<title>1</title>
<ellipse fill="none" stroke="#000000" cx="102.1236" cy="-143.271" rx="27" ry="18"/>
<text text-anchor="middle" x="102.1236" y="-139.071" font-family="Times,serif" font-size="14.00" fill="#000000">1</text>
</g>
<!-- 0&#45;&gt;1 -->
<g id="edge1" class="edge">
<title>0-&gt;1</title>
<path fill="none" stroke="#000000" d="M81.7549,-100.4386C84.2118,-105.6051 86.9586,-111.3813 89.6201,-116.9779"/>
<polygon fill="#000000" stroke="#000000" points="86.4967,-118.56 93.9522,-126.0878 92.8184,-115.5538 86.4967,-118.56"/>
</g>
<!-- 3 -->
<g id="node3" class="node">
<title>3</title>
<ellipse fill="none" stroke="#000000" cx="149.1283" cy="-77.498" rx="27" ry="18"/>
<text text-anchor="middle" x="149.1283" y="-73.298" font-family="Times,serif" font-size="14.00" fill="#000000">3</text>
</g>
<!-- 0&#45;&gt;3 -->
<g id="edge2" class="edge">
<title>0-&gt;3</title>
<path fill="none" stroke="#000000" d="M100.3547,-81.0499C104.1005,-80.7771 108.0029,-80.4929 111.8969,-80.2094"/>
<polygon fill="#000000" stroke="#000000" points="112.3519,-83.6856 122.0712,-79.4684 111.8434,-76.7041 112.3519,-83.6856"/>
</g>
<!-- 5 -->
<g id="node4" class="node">
<title>5</title>
<ellipse fill="none" stroke="#000000" cx="27" cy="-141.221" rx="27" ry="18"/>
<text text-anchor="middle" x="27" y="-137.021" font-family="Times,serif" font-size="14.00" fill="#000000">5</text>
</g>
<!-- 0&#45;&gt;5 -->
<g id="edge3" class="edge">
<title>0-&gt;5</title>
<path fill="none" stroke="#000000" d="M60.7689,-98.9151C56.3353,-104.4695 51.2522,-110.8377 46.3987,-116.9182"/>
<polygon fill="#000000" stroke="#000000" points="43.5081,-114.9291 40.0051,-124.9281 48.979,-119.296 43.5081,-114.9291"/>
</g>
<!-- 1&#45;&gt;5 -->
<g id="edge4" class="edge">
<title>1-&gt;5</title>
<path fill="none" stroke="#000000" d="M75.0022,-142.5309C71.4916,-142.4351 67.8488,-142.3357 64.2104,-142.2364"/>
<polygon fill="#000000" stroke="#000000" points="64.1733,-138.7342 54.0815,-141.96 63.9823,-145.7316 64.1733,-138.7342"/>
</g>
<!-- 3&#45;&gt;1 -->
<g id="edge6" class="edge">
<title>3-&gt;1</title>
<path fill="none" stroke="#000000" d="M137.5092,-93.7565C132.1823,-101.2102 125.7503,-110.2105 119.839,-118.4821"/>
<polygon fill="#000000" stroke="#000000" points="116.9024,-116.5717 113.9355,-126.7427 122.5975,-120.6418 116.9024,-116.5717"/>
</g>
<!-- 6 -->
<g id="node6" class="node">
<title>6</title>
<ellipse fill="none" stroke="#000000" cx="215.3876" cy="-123.9779" rx="27" ry="18"/>
<text text-anchor="middle" x="215.3876" y="-119.7779" font-family="Times,serif" font-size="14.00" fill="#000000">6</text>
</g>
<!-- 3&#45;&gt;6 -->
<g id="edge7" class="edge">
<title>3-&gt;6</title>
<path fill="none" stroke="#000000" d="M167.9383,-90.6929C174.2871,-95.1465 181.5047,-100.2095 188.361,-105.0191"/>
<polygon fill="#000000" stroke="#000000" points="186.5633,-108.0333 196.7599,-110.9108 190.5833,-102.3026 186.5633,-108.0333"/>
</g>
<!-- 2 -->
<g id="node5" class="node">
<title>2</title>
<ellipse fill="none" stroke="#000000" cx="203.3065" cy="-18.4791" rx="27" ry="18"/>
<text text-anchor="middle" x="203.3065" y="-14.2791" font-family="Times,serif" font-size="14.00" fill="#000000">2</text>
</g>
<!-- 2&#45;&gt;3 -->
<g id="edge5" class="edge">
<title>2-&gt;3</title>
<path fill="none" stroke="#000000" d="M189.0719,-33.9856C183.3933,-40.1716 176.7336,-47.4262 170.4977,-54.2193"/>
<polygon fill="#000000" stroke="#000000" points="167.6402,-52.1565 163.4561,-61.8901 172.797,-56.8902 167.6402,-52.1565"/>
</g>
<!-- 4 -->
<g id="node7" class="node">
<title>4</title>
<ellipse fill="none" stroke="#000000" cx="96.0519" cy="-18" rx="27" ry="18"/>
<text text-anchor="middle" x="96.0519" y="-13.8" font-family="Times,serif" font-size="14.00" fill="#000000">4</text>
</g>
<!-- 4&#45;&gt;0 -->
<g id="edge8" class="edge">
<title>4-&gt;0</title>
<path fill="none" stroke="#000000" d="M89.8802,-35.7638C87.739,-41.9267 85.2861,-48.9866 82.9408,-55.7372"/>
<polygon fill="#000000" stroke="#000000" points="79.606,-54.671 79.6302,-65.2658 86.2183,-56.9684 79.606,-54.671"/>
</g>
<!-- 4&#45;&gt;3 -->
<g id="edge9" class="edge">
<title>4-&gt;3</title>
<path fill="none" stroke="#000000" d="M109.9971,-33.6324C115.5602,-39.8685 122.0844,-47.1821 128.1935,-54.0303"/>
<polygon fill="#000000" stroke="#000000" points="125.8232,-56.631 135.092,-61.7634 131.0469,-51.9712 125.8232,-56.631"/>
</g>
</g>
</svg>