<?xml version="1.0" encoding="UTF-8" standalone="no"?>
<!DOCTYPE svg PUBLIC "-//W3C//DTD SVG 1.1//EN" "http://www.w3.org/Graphics/SVG/1.1/DTD/svg11.dtd">
<!-- Generated by graphviz version 2.40.1 (20161225.0304)
 -->
<!-- Title: G Pages: 1 -->
<svg width="324pt" height="200pt" viewBox="0.00 0.00 324.21 200.33" xmlns="http://www.w3.org/2000/svg" xmlns:xlink="http://www.w3.org/1999/xlink">
<g id="graph0" class="graph" transform="scale(1 1) rotate(0) translate(4 196.3314)">
<title>G</title>
<polygon fill="#ffffff" stroke="transparent" points="-4,4 -4,-196.3314 320.2107,-196.3314 320.2107,4 -4,4"/>
<!-- 0 -->
<g id="node1" class="node">
<title>0</title>
<ellipse fill="none" stroke="#000000" cx="156.2659" cy="-18" rx="27" ry="18"/>
<text text-anchor="middle" x="156.2659" y="-13.8" font-family="Times,serif" font-size="14.00" fill="#000000">0</text>
</g>
<!-- 1 -->
<g id="node2" class="node">
<title>1</title>
<ellipse fill="none" stroke="#000000" cx="139.0118" cy="-97.8981" rx="27" ry="18"/>
<text text-anchor="middle" x="139.0118" y="-93.6981" font-family="Times,serif" font-size="14.00" fill="#000000">1</text>
</g>
<!-- 0&#45;&#45;1 -->
<g id="edge1" class="edge">
<title>0--1</title>
<path fill="none" stroke="#000000" d="M152.3507,-36.1301C149.5269,-49.2059 145.7317,-66.7804 142.9115,-79.8397"/>
</g>
<!-- 4 -->
<g id="node3" class="node">
<title>4</title>
<ellipse fill="none" stroke="#000000" cx="92.8395" cy="-38.2687" rx="27" ry="18"/>
<text text-anchor="middle" x="92.8395" y="-34.0687" font-family="Times,serif" font-size="14.00" fill="#000000">4</text>
</g>
<!-- 0&#45;&#45;4 -->
<g id="edge2" class="edge">
<title>0--4</title>
<path fill="none" stroke="#000000" d="M131.562,-25.8945C126.9706,-27.3617 122.1728,-28.8949 117.5803,-30.3625"/>
</g>
<!-- 1&#45;&#45;4 -->
<g id="edge4" class="edge">
<title>1--4</title>
<path fill="none" stroke="#000000" d="M126.395,-81.6041C119.88,-73.1903 111.9538,-62.9539 105.441,-54.543"/>
</g>
<!-- 3 -->
<g id="node4" class="node">
<title>3</title>
<ellipse fill="none" stroke="#000000" cx="104.5947" cy="-174.3314" rx="27" ry="18"/>
<text text-anchor="middle" x="104.5947" y="-170.1314" font-family="Times,serif" font-size="14.00" fill="#000000">3</text>
</g>
<!-- 1&#45;&#45;3 -->
<g id="edge3" class="edge">
<title>1--3</title>
<path fill="none" stroke="#000000" d="M131.202,-115.242C125.5694,-127.7508 117.999,-144.5631 112.3735,-157.0561"/>
</g>
<!-- 5 -->
<g id="node5" class="node">
<title>5</title>
<ellipse fill="none" stroke="#000000" cx="58.4505" cy="-96.9492" rx="27" ry="18"/>
<text text-anchor="middle" x="58.4505" y="-92.7492" font-family="Times,serif" font-size="14.00" fill="#000000">5</text>
</g>
<!-- 1&#45;&#45;5 -->
<g id="edge5" class="edge">
<title>1--5</title>
<path fill="none" stroke="#000000" d="M111.7374,-97.5768C103.3383,-97.4779 94.094,-97.369 85.6968,-97.2701"/>
</g>
<!-- 7 -->
<g id="node6" class="node">
<title>7</title>
<ellipse fill="none" stroke="#000000" cx="216.1905" cy="-120.2578" rx="27" ry="18"/>
<text text-anchor="middle" x="216.1905" y="-116.0578" font-family="Times,serif" font-size="14.00" fill="#000000">7</text>
</g>
<!-- 1&#45;&#45;7 -->
<g id="edge6" class="edge">
<title>1--7</title>
<path fill="none" stroke="#000000" d="M163.8565,-105.0959C172.6697,-107.6492 182.5831,-110.5213 191.3924,-113.0735"/>
</g>
<!-- 4&#45;&#45;5 -->
<g id="edge9" class="edge">
<title>4--5</title>
<path fill="none" stroke="#000000" d="M82.8928,-55.2415C78.37,-62.959 73.0283,-72.0739 68.494,-79.8112"/>
</g>
<!-- 2 -->
<g id="node7" class="node">
<title>2</title>
<ellipse fill="none" stroke="#000000" cx="27" cy="-166.9033" rx="27" ry="18"/>
<text text-anchor="middle" x="27" y="-162.7033" font-family="Times,serif" font-size="14.00" fill="#000000">2</text>
</g>
<!-- 2&#45;&#45;3 -->
<g id="edge7" class="edge">
<title>2--3</title>
<path fill="none" stroke="#000000" d="M54.1388,-169.5013C61.8306,-170.2376 70.1964,-171.0384 77.8638,-171.7724"/>
</g>
<!-- 2&#45;&#45;5 -->
<g id="edge8" class="edge">
<title>2--5</title>
<path fill="none" stroke="#000000" d="M34.7743,-149.6112C39.5765,-138.9299 45.7212,-125.2624 50.5472,-114.5282"/>
</g>
<!-- 6 -->
<g id="node8" class="node">
<title>6</title>
<ellipse fill="none" stroke="#000000" cx="289.2107" cy="-136.3592" rx="27" ry="18"/>
<text text-anchor="middle" x="289.2107" y="-132.1592" font-family="Times,serif" font-size="14.00" fill="#000000">6</text>
</g>
<!-- 6&#45;&#45;7 -->
<g id="edge10" class="edge">
<title>6--7</title>
<path fill="none" stroke="#000000" d="M263.2609,-130.6371C256.3742,-129.1185 248.939,-127.479 242.0567,-125.9615"/>
</g>
</g>
</svg>