<?xml version="1.0" encoding="UTF-8" standalone="no"?>
<!DOCTYPE svg PUBLIC "-//W3C//DTD SVG 1.1//EN" "http://www.w3.org/Graphics/SVG/1.1/DTD/svg11.dtd">
<!-- Generated by graphviz version 2.40.1 (20161225.0304)
 -->
<!-- Title: G Pages: 1 -->
<svg width="265pt" height="228pt" viewBox="0.00 0.00 265.23 228.48" xmlns="http://www.w3.org/2000/svg" xmlns:xlink="http://www.w3.org/1999/xlink">
<g id="graph0" class="graph" transform="scale(1 1) rotate(0) translate(4 224.4818)">
<title>G</title>
<polygon fill="#ffffff" stroke="transparent" points="-4,4 -4,-224.4818 261.226,-224.4818 261.226,4 -4,4"/>
<!-- 7 -->
<g id="node1" class="node">
<title>7</title>
<ellipse fill="none" stroke="#000000" cx="36.5967" cy="-91.5155" rx="27" ry="18"/>
<text text-anchor="middle" x="36.5967" y="-87.3155" font-family="Times,serif" font-size="14.00" fill="#000000">7</text>
</g>
<!-- 6 -->
<g id="node2" class="node">
<title>6</title>
<ellipse fill="none" stroke="#000000" cx="78.1256" cy="-170.4988" rx="27" ry="18"/>
<text text-anchor="middle" x="78.1256" y="-166.2988" font-family="Times,serif" font-size="14.00" fill="#000000">6</text>
</g>
<!-- 7&#45;&#45;6 -->
<g id="edge1" class="edge">
<title>7--6</title>
<path fill="none" stroke="#000000" stroke-width="3" d="M45.6078,-108.6537C52.5736,-121.9019 62.1707,-140.1544 69.132,-153.3941"/>
<text text-anchor="middle" x="53.8699" y="-135.2239" font-family="Times,serif" font-size="14.00" fill="#000000">1</text>
</g>
<!-- 8 -->
<g id="node6" class="node">
<title>8</title>
<ellipse fill="none" stroke="#000000" cx="92.181" cy="-114.1721" rx="27" ry="18"/>
<text text-anchor="middle" x="92.181" y="-109.9721" font-family="Times,serif" font-size="14.00" fill="#000000">8</text>
</g>
<!-- 7&#45;&#45;8 -->
<g id="edge5" class="edge">
<title>7--8</title>
<path fill="none" stroke="#000000" d="M59.8474,-100.9927C62.8223,-102.2053 65.8685,-103.4469 68.8448,-104.6601"/>
<text text-anchor="middle" x="67.8461" y="-90.2264" font-family="Times,serif" font-size="14.00" fill="#000000">7</text>
</g>
<!-- 5 -->
<g id="node3" class="node">
<title>5</title>
<ellipse fill="none" stroke="#000000" cx="163.1383" cy="-167.8476" rx="27" ry="18"/>
<text text-anchor="middle" x="163.1383" y="-163.6476" font-family="Times,serif" font-size="14.00" fill="#000000">5</text>
</g>
<!-- 6&#45;&#45;5 -->
<g id="edge2" class="edge">
<title>6--5</title>
<path fill="none" stroke="#000000" stroke-width="3" d="M105.4921,-169.6454C115.2969,-169.3396 126.3381,-168.9952 136.1138,-168.6904"/>
<text text-anchor="middle" x="117.3029" y="-173.3679" font-family="Times,serif" font-size="14.00" fill="#000000">2</text>
</g>
<!-- 4 -->
<g id="node9" class="node">
<title>4</title>
<ellipse fill="none" stroke="#000000" cx="230.226" cy="-202.4818" rx="27" ry="18"/>
<text text-anchor="middle" x="230.226" y="-198.2818" font-family="Times,serif" font-size="14.00" fill="#000000">4</text>
</g>
<!-- 5&#45;&#45;4 -->
<g id="edge10" class="edge">
<title>5--4</title>
<path fill="none" stroke="#000000" d="M184.7345,-178.9967C192.3954,-182.9517 201.0127,-187.4004 208.6702,-191.3536"/>
<text text-anchor="middle" x="189.7024" y="-189.3751" font-family="Times,serif" font-size="14.00" fill="#000000">10</text>
</g>
<!-- 2 -->
<g id="node4" class="node">
<title>2</title>
<ellipse fill="none" stroke="#000000" cx="160.9844" cy="-85.5886" rx="27" ry="18"/>
<text text-anchor="middle" x="160.9844" y="-81.3886" font-family="Times,serif" font-size="14.00" fill="#000000">2</text>
</g>
<!-- 2&#45;&#45;5 -->
<g id="edge3" class="edge">
<title>2--5</title>
<path fill="none" stroke="#000000" stroke-width="3" d="M161.4624,-103.8446C161.8193,-117.4763 162.305,-136.0233 162.6616,-149.6427"/>
<text text-anchor="middle" x="158.562" y="-130.9436" font-family="Times,serif" font-size="14.00" fill="#000000">4</text>
</g>
<!-- 3 -->
<g id="node5" class="node">
<title>3</title>
<ellipse fill="none" stroke="#000000" cx="222.4464" cy="-128.0234" rx="27" ry="18"/>
<text text-anchor="middle" x="222.4464" y="-123.8234" font-family="Times,serif" font-size="14.00" fill="#000000">3</text>
</g>
<!-- 2&#45;&#45;3 -->
<g id="edge4" class="edge">
<title>2--3</title>
<path fill="none" stroke="#000000" stroke-width="3" d="M179.759,-98.551C187.2431,-103.7182 195.8481,-109.6593 203.3626,-114.8475"/>
<text text-anchor="middle" x="188.0608" y="-110.8993" font-family="Times,serif" font-size="14.00" fill="#000000">7</text>
</g>
<!-- 3&#45;&#45;5 -->
<g id="edge13" class="edge">
<title>3--5</title>
<path fill="none" stroke="#000000" d="M203.3545,-140.8432C196.5819,-145.3908 188.9639,-150.5062 182.1944,-155.0518"/>
<text text-anchor="middle" x="185.7744" y="-135.3475" font-family="Times,serif" font-size="14.00" fill="#000000">14</text>
</g>
<!-- 3&#45;&#45;4 -->
<g id="edge9" class="edge">
<title>3--4</title>
<path fill="none" stroke="#000000" stroke-width="3" d="M224.3296,-146.0477C225.5438,-157.6683 227.1171,-172.7267 228.3332,-184.3654"/>
<text text-anchor="middle" x="222.8314" y="-169.4066" font-family="Times,serif" font-size="14.00" fill="#000000">9</text>
</g>
<!-- 8&#45;&#45;6 -->
<g id="edge14" class="edge">
<title>8--6</title>
<path fill="none" stroke="#000000" d="M87.7338,-131.9942C86.0931,-138.5692 84.2345,-146.0175 82.5921,-152.5993"/>
<text text-anchor="middle" x="81.663" y="-146.4968" font-family="Times,serif" font-size="14.00" fill="#000000">6</text>
</g>
<!-- 8&#45;&#45;2 -->
<g id="edge8" class="edge">
<title>8--2</title>
<path fill="none" stroke="#000000" stroke-width="3" d="M115.4747,-104.495C122.6479,-101.515 130.543,-98.2351 137.7147,-95.2557"/>
<text text-anchor="middle" x="123.0947" y="-104.0754" font-family="Times,serif" font-size="14.00" fill="#000000">2</text>
</g>
<!-- 0 -->
<g id="node7" class="node">
<title>0</title>
<ellipse fill="none" stroke="#000000" cx="27" cy="-18" rx="27" ry="18"/>
<text text-anchor="middle" x="27" y="-13.8" font-family="Times,serif" font-size="14.00" fill="#000000">0</text>
</g>
<!-- 0&#45;&#45;7 -->
<g id="edge6" class="edge">
<title>0--7</title>
<path fill="none" stroke="#000000" stroke-width="3" d="M29.3722,-36.1724C30.8597,-47.5677 32.7694,-62.1968 34.2517,-73.5522"/>
<text text-anchor="middle" x="28.312" y="-59.0623" font-family="Times,serif" font-size="14.00" fill="#000000">8</text>
</g>
<!-- 1 -->
<g id="node8" class="node">
<title>1</title>
<ellipse fill="none" stroke="#000000" cx="98.9364" cy="-33.5492" rx="27" ry="18"/>
<text text-anchor="middle" x="98.9364" y="-29.3492" font-family="Times,serif" font-size="14.00" fill="#000000">1</text>
</g>
<!-- 0&#45;&#45;1 -->
<g id="edge12" class="edge">
<title>0--1</title>
<path fill="none" stroke="#000000" stroke-width="3" d="M52.9707,-23.6136C59.5708,-25.0403 66.6589,-26.5723 73.245,-27.996"/>
<text text-anchor="middle" x="59.6079" y="-30.0048" font-family="Times,serif" font-size="14.00" fill="#000000">4</text>
</g>
<!-- 1&#45;&#45;7 -->
<g id="edge11" class="edge">
<title>1--7</title>
<path fill="none" stroke="#000000" d="M82.8824,-48.477C73.5027,-57.1987 61.7134,-68.1609 52.3805,-76.839"/>
<text text-anchor="middle" x="60.6314" y="-50.058" font-family="Times,serif" font-size="14.00" fill="#000000">11</text>
</g>
<!-- 1&#45;&#45;2 -->
<g id="edge7" class="edge">
<title>1--2</title>
<path fill="none" stroke="#000000" d="M115.8913,-47.7692C124.6463,-55.112 135.2979,-64.0455 144.05,-71.3858"/>
<text text-anchor="middle" x="126.4706" y="-63.7775" font-family="Times,serif" font-size="14.00" fill="#000000">8</text>
</g>
</g>
</svg>