<?xml version="1.0" encoding="UTF-8" standalone="no"?>
<!DOCTYPE svg PUBLIC "-//W3C//DTD SVG 1.1//EN" "http://www.w3.org/Graphics/SVG/1.1/DTD/svg11.dtd">
<!-- Generated by graphviz version 2.40.1 (20161225.0304)
 -->
<!-- Title: %0 Pages: 1 -->
<svg width="202pt" height="298pt" viewBox="0.00 0.00 202.15 298.37" xmlns="http://www.w3.org/2000/svg" xmlns:xlink="http://www.w3.org/1999/xlink">
<g id="graph0" class="graph" transform="scale(1 1) rotate(0) translate(4 294.3676)">
<title>%0</title>
<polygon fill="#ffffff" stroke="transparent" points="-4,4 -4,-294.3676 198.1545,-294.3676 198.1545,4 -4,4"/>
<!-- 0 -->
<g id="node1" class="node">
<title>0</title>
<ellipse fill="none" stroke="#000000" cx="120.3059" cy="-18" rx="27" ry="18"/>
<text text-anchor="middle" x="120.3059" y="-13.8" font-family="Times,serif" font-size="14.00" fill="#000000">0</text>
</g>
<!-- 1 -->
<g id="node2" class="node">
<title>1</title>
<ellipse fill="none" stroke="#000000" cx="97.9478" cy="-89.7871" rx="27" ry="18"/>
<text text-anchor="middle" x="97.9478" y="-85.5871" font-family="Times,serif" font-size="14.00" fill="#000000">1</text>
</g>
<!-- 0&#45;&#45;1 -->
<g id="edge1" class="edge">
<title>0--1</title>
<path fill="none" stroke="#000000" d="M114.7792,-35.7451C111.3653,-46.7064 106.9971,-60.7319 103.5663,-71.7475"/>
<text text-anchor="middle" x="105.6727" y="-57.9463" font-family="Times,serif" font-size="14.00" fill="#000000">4</text>
</g>
<!-- 6 -->
<g id="node3" class="node">
<title>6</title>
<ellipse fill="none" stroke="#000000" cx="167.1545" cy="-76.9638" rx="27" ry="18"/>
<text text-anchor="middle" x="167.1545" y="-72.7638" font-family="Times,serif" font-size="14.00" fill="#000000">6</text>
</g>
<!-- 0&#45;&#45;6 -->
<g id="edge2" class="edge">
<title>0--6</title>
<path fill="none" stroke="#000000" d="M133.1075,-34.1121C139.7179,-42.432 147.7603,-52.5541 154.3684,-60.8711"/>
<text text-anchor="middle" x="140.238" y="-51.6916" font-family="Times,serif" font-size="14.00" fill="#000000">7</text>
</g>
<!-- 1&#45;&#45;6 -->
<g id="edge4" class="edge">
<title>1--6</title>
<path fill="none" stroke="#000000" d="M124.1119,-84.9391C129.6239,-83.9178 135.4401,-82.8401 140.9534,-81.8186"/>
<text text-anchor="middle" x="132.5327" y="-70.7788" font-family="Times,serif" font-size="14.00" fill="#000000">11</text>
</g>
<!-- 7 -->
<g id="node4" class="node">
<title>7</title>
<ellipse fill="none" stroke="#000000" cx="151.6693" cy="-150.2832" rx="27" ry="18"/>
<text text-anchor="middle" x="151.6693" y="-146.0832" font-family="Times,serif" font-size="14.00" fill="#000000">7</text>
</g>
<!-- 1&#45;&#45;7 -->
<g id="edge6" class="edge">
<title>1--7</title>
<path fill="none" stroke="#000000" d="M111.7825,-105.3663C119.7411,-114.3286 129.7128,-125.5579 137.6949,-134.5465"/>
<text text-anchor="middle" x="117.7387" y="-124.1564" font-family="Times,serif" font-size="14.00" fill="#000000">20</text>
</g>
<!-- 2 -->
<g id="node5" class="node">
<title>2</title>
<ellipse fill="none" stroke="#000000" cx="40.0093" cy="-144.8201" rx="27" ry="18"/>
<text text-anchor="middle" x="40.0093" y="-140.6201" font-family="Times,serif" font-size="14.00" fill="#000000">2</text>
</g>
<!-- 1&#45;&#45;2 -->
<g id="edge5" class="edge">
<title>1--2</title>
<path fill="none" stroke="#000000" d="M82.4214,-104.5349C74.1085,-112.4309 63.898,-122.1294 55.5787,-130.0316"/>
<text text-anchor="middle" x="65.5" y="-104.6832" font-family="Times,serif" font-size="14.00" fill="#000000">9</text>
</g>
<!-- 6&#45;&#45;7 -->
<g id="edge3" class="edge">
<title>6--7</title>
<path fill="none" stroke="#000000" d="M163.3267,-95.0877C160.9264,-106.4525 157.845,-121.0427 155.4531,-132.3678"/>
<text text-anchor="middle" x="155.8899" y="-117.9277" font-family="Times,serif" font-size="14.00" fill="#000000">1</text>
</g>
<!-- 8 -->
<g id="node8" class="node">
<title>8</title>
<ellipse fill="none" stroke="#000000" cx="155.704" cy="-226.9312" rx="27" ry="18"/>
<text text-anchor="middle" x="155.704" y="-222.7312" font-family="Times,serif" font-size="14.00" fill="#000000">8</text>
</g>
<!-- 7&#45;&#45;8 -->
<g id="edge11" class="edge">
<title>7--8</title>
<path fill="none" stroke="#000000" d="M152.6255,-168.4477C153.2686,-180.666 154.113,-196.7061 154.7547,-208.8971"/>
<text text-anchor="middle" x="150.1901" y="-192.8724" font-family="Times,serif" font-size="14.00" fill="#000000">3</text>
</g>
<!-- 3 -->
<g id="node6" class="node">
<title>3</title>
<ellipse fill="none" stroke="#000000" cx="27" cy="-221.1971" rx="27" ry="18"/>
<text text-anchor="middle" x="27" y="-216.9971" font-family="Times,serif" font-size="14.00" fill="#000000">3</text>
</g>
<!-- 2&#45;&#45;3 -->
<g id="edge7" class="edge">
<title>2--3</title>
<path fill="none" stroke="#000000" d="M36.9263,-162.9204C34.8525,-175.0955 32.1301,-191.0789 30.0609,-203.2268"/>
<text text-anchor="middle" x="29.9936" y="-187.2736" font-family="Times,serif" font-size="14.00" fill="#000000">6</text>
</g>
<!-- 4 -->
<g id="node7" class="node">
<title>4</title>
<ellipse fill="none" stroke="#000000" cx="92.6271" cy="-201.3218" rx="27" ry="18"/>
<text text-anchor="middle" x="92.6271" y="-197.1218" font-family="Times,serif" font-size="14.00" fill="#000000">4</text>
</g>
<!-- 2&#45;&#45;4 -->
<g id="edge8" class="edge">
<title>2--4</title>
<path fill="none" stroke="#000000" d="M54.3874,-160.2594C61.8118,-168.2319 70.8445,-177.9314 78.2664,-185.9012"/>
<text text-anchor="middle" x="62.8269" y="-177.2803" font-family="Times,serif" font-size="14.00" fill="#000000">2</text>
</g>
<!-- 3&#45;&#45;4 -->
<g id="edge9" class="edge">
<title>3--4</title>
<path fill="none" stroke="#000000" d="M51.8108,-213.6831C57.0377,-212.1002 62.553,-210.4298 67.7812,-208.8464"/>
<text text-anchor="middle" x="59.796" y="-198.6648" font-family="Times,serif" font-size="14.00" fill="#000000">10</text>
</g>
<!-- 5 -->
<g id="node9" class="node">
<title>5</title>
<ellipse fill="none" stroke="#000000" cx="88.8838" cy="-272.3676" rx="27" ry="18"/>
<text text-anchor="middle" x="88.8838" y="-268.1676" font-family="Times,serif" font-size="14.00" fill="#000000">5</text>
</g>
<!-- 3&#45;&#45;5 -->
<g id="edge14" class="edge">
<title>3--5</title>
<path fill="none" stroke="#000000" d="M44.2381,-235.4509C52.8213,-242.5482 63.1676,-251.1034 71.7382,-258.1902"/>
<text text-anchor="middle" x="54.4881" y="-251.0206" font-family="Times,serif" font-size="14.00" fill="#000000">5</text>
</g>
<!-- 4&#45;&#45;7 -->
<g id="edge10" class="edge">
<title>4--7</title>
<path fill="none" stroke="#000000" d="M109.3883,-186.8327C117.4342,-179.8775 127.0459,-171.5687 135.0706,-164.6319"/>
<text text-anchor="middle" x="118.7294" y="-163.1323" font-family="Times,serif" font-size="14.00" fill="#000000">1</text>
</g>
<!-- 4&#45;&#45;8 -->
<g id="edge12" class="edge">
<title>4--8</title>
<path fill="none" stroke="#000000" d="M115.7564,-210.7124C121.2414,-212.9393 127.0925,-215.3149 132.5774,-217.5418"/>
<text text-anchor="middle" x="124.1669" y="-201.5271" font-family="Times,serif" font-size="14.00" fill="#000000">5</text>
</g>
<!-- 4&#45;&#45;5 -->
<g id="edge13" class="edge">
<title>4--5</title>
<path fill="none" stroke="#000000" d="M91.6631,-219.6179C91.1085,-230.143 90.4137,-243.3305 89.8575,-253.8866"/>
<text text-anchor="middle" x="83.7603" y="-240.9522" font-family="Times,serif" font-size="14.00" fill="#000000">15</text>
</g>
<!-- 8&#45;&#45;5 -->
<g id="edge15" class="edge">
<title>8--5</title>
<path fill="none" stroke="#000000" d="M136.7347,-239.8299C127.7833,-245.9167 117.1192,-253.1681 108.1325,-259.2788"/>
<text text-anchor="middle" x="115.4336" y="-236.9544" font-family="Times,serif" font-size="14.00" fill="#000000">12</text>
</g>
</g>
</svg>